<?xml version="1.0" encoding="UTF-8" standalone="no"?>
<!DOCTYPE svg PUBLIC "-//W3C//DTD SVG 1.1//EN" "http://www.w3.org/Graphics/SVG/1.1/DTD/svg11.dtd">
<svg width="100%" height="100%" viewBox="0 0 32 32" version="1.1" xmlns="http://www.w3.org/2000/svg" xmlns:xlink="http://www.w3.org/1999/xlink" xml:space="preserve" style="fill-rule:evenodd;clip-rule:evenodd;stroke-linejoin:round;stroke-miterlimit:2;">
    <rect x="0" y="0" width="32" height="32" style="fill:white;"/>
    <g transform="matrix(1,0,0,1,1.57417,0)">
        <path d="M16.248,27.904L14.724,27.904L15.524,21.152L17.048,21.152L16.248,27.904ZM10.136,21.152L9.336,27.904L7.812,27.904L8.612,21.152L10.136,21.152ZM9.508,13.664L11.032,13.664L10.552,17.536L9.028,17.536L9.508,13.664ZM15.94,17.536L17.464,17.536L17.944,13.664L16.42,13.664L15.94,17.536ZM12.248,4.096L11.512,10.048L9.988,10.048L10.724,4.096L12.248,4.096ZM16.9,10.048L17.636,4.096L19.16,4.096L18.424,10.048L16.9,10.048ZM7.448,17.536L7.448,21.152L5.924,21.152L5.924,17.536L7.448,17.536ZM8.184,10.048L8.184,13.664L6.66,13.664L6.66,10.048L8.184,10.048Z" style="fill:rgb(84,0,255);fill-rule:nonzero;"/>
    </g>
    <g transform="matrix(1,0,0,1,1.57417,0)">
        <path d="M9.336,27.904L10.136,21.152L7.448,21.152L7.448,17.536L10.552,17.536L11.032,13.664L8.184,13.664L8.184,10.048L11.512,10.048L12.248,4.096L15.48,4.096L14.776,10.048L18.424,10.048L19.16,4.096L22.424,4.096L21.72,10.048L24.6,10.048L24.6,13.664L21.272,13.664L20.76,17.536L23.864,17.536L23.864,21.152L20.344,21.152L19.544,27.904L16.248,27.904L17.048,21.152L13.432,21.152L12.6,27.904L9.336,27.904ZM13.816,17.536L17.464,17.536L17.944,13.664L14.296,13.664L13.816,17.536Z" style="fill-rule:nonzero;"/>
    </g>
    <g transform="matrix(1,0,0,1,1.57417,0)">
        <path d="M14.908,21.152L14.076,27.904L12.6,27.904L13.432,21.152L14.908,21.152ZM23.864,17.536L25.34,17.536L25.34,21.152L23.864,21.152L23.864,17.536ZM24.6,10.048L26.076,10.048L26.076,13.664L24.6,13.664L24.6,10.048ZM15.292,17.536L15.772,13.664L14.296,13.664L13.816,17.536L15.292,17.536ZM21.72,10.048L22.424,4.096L23.9,4.096L23.196,10.048L21.72,10.048ZM16.252,10.048L14.776,10.048L15.48,4.096L16.956,4.096L16.252,10.048ZM21.82,21.152L21.02,27.904L19.544,27.904L20.344,21.152L21.82,21.152ZM22.748,13.664L22.236,17.536L20.76,17.536L21.272,13.664L22.748,13.664Z" style="fill:rgb(84,255,0);fill-rule:nonzero;"/>
    </g>
</svg>
